<mxfile host="65bd71144e">
    <diagram id="jvpxiM3Bno99Y7HnI9Pq" name="Page-1">
        <mxGraphModel dx="898" dy="506" grid="1" gridSize="10" guides="1" tooltips="1" connect="1" arrows="1" fold="1" page="1" pageScale="1" pageWidth="500" pageHeight="780" math="0" shadow="0">
            <root>
                <mxCell id="0"/>
                <mxCell id="1" parent="0"/>
                <mxCell id="28" value="" style="rounded=0;whiteSpace=wrap;html=1;strokeColor=none;" parent="1" vertex="1">
                    <mxGeometry width="520" height="460" as="geometry"/>
                </mxCell>
                <mxCell id="2" value="" style="endArrow=none;html=1;align=center;startArrow=none;" parent="1" source="22" edge="1">
                    <mxGeometry width="50" height="50" relative="1" as="geometry">
                        <mxPoint x="270" y="420" as="sourcePoint"/>
                        <mxPoint x="270" y="40" as="targetPoint"/>
                    </mxGeometry>
                </mxCell>
                <mxCell id="3" value="" style="endArrow=none;html=1;align=center;" parent="1" target="4" edge="1">
                    <mxGeometry width="50" height="50" relative="1" as="geometry">
                        <mxPoint x="450" y="240" as="sourcePoint"/>
                        <mxPoint x="50" y="240" as="targetPoint"/>
                    </mxGeometry>
                </mxCell>
                <mxCell id="4" value="Easy&lt;br&gt;(short dev-time)" style="text;html=1;strokeColor=#6c8ebf;fillColor=#dae8fc;align=center;verticalAlign=middle;whiteSpace=wrap;rounded=0;" parent="1" vertex="1">
                    <mxGeometry x="10" y="225" width="90" height="30" as="geometry"/>
                </mxCell>
                <mxCell id="5" value="Hard&lt;br&gt;(long dev-time)" style="text;html=1;strokeColor=#6c8ebf;fillColor=#dae8fc;align=center;verticalAlign=middle;whiteSpace=wrap;rounded=0;" parent="1" vertex="1">
                    <mxGeometry x="420" y="220" width="90" height="35" as="geometry"/>
                </mxCell>
                <mxCell id="6" value="High Value&lt;br&gt;(need it yesterday)" style="text;html=1;strokeColor=#6c8ebf;fillColor=#dae8fc;align=center;verticalAlign=middle;whiteSpace=wrap;rounded=0;" parent="1" vertex="1">
                    <mxGeometry x="200" y="10" width="150" height="30" as="geometry"/>
                </mxCell>
                <mxCell id="7" value="Low Value&lt;br&gt;(will we ever need it?)" style="text;html=1;strokeColor=#6c8ebf;fillColor=#dae8fc;align=center;verticalAlign=middle;whiteSpace=wrap;rounded=0;" parent="1" vertex="1">
                    <mxGeometry x="190" y="420" width="170" height="30" as="geometry"/>
                </mxCell>
                <mxCell id="8" value="Arithmetic Engine&lt;br&gt;" style="text;whiteSpace=wrap;html=1;fillColor=#f5f5f5;fontColor=#333333;strokeColor=#666666;align=center;" parent="1" vertex="1">
                    <mxGeometry x="330" y="130" width="60" height="40" as="geometry"/>
                </mxCell>
                <mxCell id="10" value="&amp;nbsp;Numerical Robustness" style="text;whiteSpace=wrap;html=1;fillColor=#f5f5f5;fontColor=#333333;strokeColor=#666666;align=center;" parent="1" vertex="1">
                    <mxGeometry x="300" y="45" width="70" height="40" as="geometry"/>
                </mxCell>
                <mxCell id="11" value="Inference on Parameters" style="text;whiteSpace=wrap;html=1;fillColor=#f5f5f5;fontColor=#333333;strokeColor=#666666;align=center;" parent="1" vertex="1">
                    <mxGeometry x="80" y="390" width="70" height="40" as="geometry"/>
                </mxCell>
                <mxCell id="12" value="Log-Linear Models" style="text;whiteSpace=wrap;html=1;fillColor=#f5f5f5;fontColor=#333333;strokeColor=#666666;align=center;" parent="1" vertex="1">
                    <mxGeometry x="170" y="45" width="60" height="40" as="geometry"/>
                </mxCell>
                <mxCell id="14" value="Sim ProcErr" style="text;whiteSpace=wrap;html=1;fillColor=#f5f5f5;fontColor=#333333;strokeColor=#666666;align=center;" parent="1" vertex="1">
                    <mxGeometry x="110" y="45" width="50" height="40" as="geometry"/>
                </mxCell>
                <mxCell id="15" value="Model Products" style="text;whiteSpace=wrap;html=1;fillColor=#f5f5f5;fontColor=#333333;strokeColor=#666666;align=center;" parent="1" vertex="1">
                    <mxGeometry x="240" y="210" width="60" height="40" as="geometry"/>
                </mxCell>
                <mxCell id="16" value="ODE Solvers" style="text;whiteSpace=wrap;html=1;fillColor=#f5f5f5;fontColor=#333333;strokeColor=#666666;align=center;" parent="1" vertex="1">
                    <mxGeometry x="170" y="210" width="50" height="40" as="geometry"/>
                </mxCell>
                <mxCell id="17" value="R0,Gbar,r" style="text;html=1;strokeColor=#666666;fillColor=#f5f5f5;align=center;verticalAlign=middle;whiteSpace=wrap;rounded=0;fontColor=#333333;" parent="1" vertex="1">
                    <mxGeometry x="280" y="90" width="60" height="30" as="geometry"/>
                </mxCell>
                <mxCell id="18" value="Generic Time Step Units" style="text;whiteSpace=wrap;html=1;fillColor=#f5f5f5;fontColor=#333333;strokeColor=#666666;align=center;" parent="1" vertex="1">
                    <mxGeometry x="75" y="270" width="60" height="50" as="geometry"/>
                </mxCell>
                <mxCell id="19" value="Flows without per-capita Rates" style="text;whiteSpace=wrap;html=1;fillColor=#f5f5f5;fontColor=#333333;strokeColor=#666666;align=center;" parent="1" vertex="1">
                    <mxGeometry x="85" y="140" width="60" height="70" as="geometry"/>
                </mxCell>
                <mxCell id="20" value="MCMC" style="text;whiteSpace=wrap;html=1;fillColor=#f5f5f5;fontColor=#333333;strokeColor=#666666;align=center;" parent="1" vertex="1">
                    <mxGeometry x="140" y="330" width="40" height="30" as="geometry"/>
                </mxCell>
                <mxCell id="21" value="Uneven Lagged Diff" style="text;whiteSpace=wrap;html=1;fillColor=#f5f5f5;fontColor=#333333;strokeColor=#666666;align=center;" parent="1" vertex="1">
                    <mxGeometry x="50" y="45" width="50" height="50" as="geometry"/>
                </mxCell>
                <mxCell id="23" value="Modularization &amp;amp; Software Stability" style="text;whiteSpace=wrap;html=1;fillColor=#f5f5f5;fontColor=#333333;strokeColor=#666666;align=center;" parent="1" vertex="1">
                    <mxGeometry x="380" y="45" width="100" height="40" as="geometry"/>
                </mxCell>
                <mxCell id="24" value="Clean up Existing Features" style="text;whiteSpace=wrap;html=1;fillColor=#f5f5f5;fontColor=#333333;strokeColor=#666666;align=center;" parent="1" vertex="1">
                    <mxGeometry x="330" y="210" width="60" height="50" as="geometry"/>
                </mxCell>
                <mxCell id="25" value="Guides" style="text;whiteSpace=wrap;html=1;fillColor=#f5f5f5;fontColor=#333333;strokeColor=#666666;align=center;" parent="1" vertex="1">
                    <mxGeometry x="190" y="110" width="40" height="30" as="geometry"/>
                </mxCell>
                <mxCell id="22" value="Calib&lt;br&gt;ProcErr" style="text;whiteSpace=wrap;html=1;fillColor=#f5f5f5;fontColor=#333333;strokeColor=#666666;align=center;" parent="1" vertex="1">
                    <mxGeometry x="240" y="45" width="50" height="40" as="geometry"/>
                </mxCell>
                <mxCell id="29" value="" style="endArrow=none;html=1;align=center;" parent="1" target="22" edge="1">
                    <mxGeometry width="50" height="50" relative="1" as="geometry">
                        <mxPoint x="270" y="420" as="sourcePoint"/>
                        <mxPoint x="270" y="40" as="targetPoint"/>
                    </mxGeometry>
                </mxCell>
            </root>
        </mxGraphModel>
    </diagram>
</mxfile>